<svg width="506" height="518" viewBox="0 0 506 518" fill="none" xmlns="http://www.w3.org/2000/svg">
<rect width="506" height="518" rx="10" fill="#007AFF"/>
<path d="M321.292 125H247.765C231.288 125 218 138.32 218 154.838C218 171.355 231.288 184.676 247.765 184.676H321.292V341.147C321.292 374.181 348.046 401 381 401V184.853V125H321.292Z" fill="white" fill-opacity="0.15"/>
<path d="M384.292 63H310.765C294.288 63 281 76.3205 281 92.8378C281 109.355 294.288 122.676 310.765 122.676H384.292V279.147C384.292 312.181 411.046 339 444 339V122.853V63H384.292Z" fill="white" fill-opacity="0.1"/>
<path d="M446.292 0H372.765C356.288 0 343 13.3205 343 29.8378C343 46.3552 356.288 59.6757 372.765 59.6757H446.292V216.147C446.292 249.181 473.046 276 506 276V59.8533V0H446.292Z" fill="white" fill-opacity="0.05"/>
</svg>
