<?xml version="1.0" standalone="no"?><svg xmlns="http://www.w3.org/2000/svg" viewBox="0 0 1440 320"><path fill="#0099ff" fill-opacity="1" d="M0,0L16,16C32,32,64,64,96,101.3C128,139,160,181,192,186.7C224,192,256,160,288,160C320,160,352,192,384,186.7C416,181,448,139,480,149.3C512,160,544,224,576,245.3C608,267,640,245,672,218.7C704,192,736,160,768,160C800,160,832,192,864,170.7C896,149,928,75,960,64C992,53,1024,107,1056,122.7C1088,139,1120,117,1152,112C1184,107,1216,117,1248,138.7C1280,160,1312,192,1344,218.7C1376,245,1408,267,1424,277.3L1440,288L1440,320L1424,320C1408,320,1376,320,1344,320C1312,320,1280,320,1248,320C1216,320,1184,320,1152,320C1120,320,1088,320,1056,320C1024,320,992,320,960,320C928,320,896,320,864,320C832,320,800,320,768,320C736,320,704,320,672,320C640,320,608,320,576,320C544,320,512,320,480,320C448,320,416,320,384,320C352,320,320,320,288,320C256,320,224,320,192,320C160,320,128,320,96,320C64,320,32,320,16,320L0,320Z"></path></svg>